<mxfile host="app.diagrams.net" modified="2023-12-27T13:28:45.817Z" agent="Mozilla/5.0 (Macintosh; Intel Mac OS X 10_15_7) AppleWebKit/537.36 (KHTML, like Gecko) Chrome/119.0.0.0 Safari/537.36" etag="WBUFdegeN_qewOj2A147" version="22.1.12" type="github">
  <diagram name="第 1 页" id="GV3FD3EHnnEYpjcIKvkD">
    <mxGraphModel dx="1242" dy="732" grid="1" gridSize="10" guides="1" tooltips="1" connect="1" arrows="1" fold="1" page="1" pageScale="1" pageWidth="827" pageHeight="1169" math="0" shadow="0">
      <root>
        <mxCell id="0" />
        <mxCell id="1" parent="0" />
        <mxCell id="NJ_7E44Y7URhuoBIOfff-66" value="" style="rounded=0;whiteSpace=wrap;html=1;" vertex="1" parent="1">
          <mxGeometry x="120" y="970" width="520" height="270" as="geometry" />
        </mxCell>
        <mxCell id="NJ_7E44Y7URhuoBIOfff-100" value="" style="rounded=0;whiteSpace=wrap;html=1;fillColor=#DEDEDE;strokeColor=#6D1F00;shadow=0;glass=0;fontColor=#ffffff;dashed=1;" vertex="1" parent="1">
          <mxGeometry x="510" y="1170" width="100" height="30" as="geometry" />
        </mxCell>
        <mxCell id="NJ_7E44Y7URhuoBIOfff-96" value="" style="rounded=0;whiteSpace=wrap;html=1;fillColor=#DEDEDE;strokeColor=#6D1F00;shadow=0;glass=0;fontColor=#ffffff;dashed=1;" vertex="1" parent="1">
          <mxGeometry x="550" y="1060" width="50" height="30" as="geometry" />
        </mxCell>
        <mxCell id="NJ_7E44Y7URhuoBIOfff-13" value="" style="rounded=0;whiteSpace=wrap;html=1;" vertex="1" parent="1">
          <mxGeometry x="120" y="290" width="230" height="270" as="geometry" />
        </mxCell>
        <mxCell id="NJ_7E44Y7URhuoBIOfff-1" value="" style="rounded=0;whiteSpace=wrap;html=1;fillColor=#bdcfaa;strokeColor=#000000;shadow=0;glass=0;fontColor=#ffffff;" vertex="1" parent="1">
          <mxGeometry x="130" y="370" width="120" height="30" as="geometry" />
        </mxCell>
        <mxCell id="NJ_7E44Y7URhuoBIOfff-3" value="Memory Cgroup" style="text;html=1;align=center;verticalAlign=middle;resizable=0;points=[];autosize=1;strokeColor=none;fillColor=none;" vertex="1" parent="1">
          <mxGeometry x="180" y="300" width="110" height="30" as="geometry" />
        </mxCell>
        <mxCell id="NJ_7E44Y7URhuoBIOfff-4" value="" style="rounded=0;whiteSpace=wrap;html=1;fillColor=#DEDEDE;strokeColor=#000000;shadow=0;glass=0;fontColor=#333333;dashed=1;" vertex="1" parent="1">
          <mxGeometry x="250" y="370" width="90" height="30" as="geometry" />
        </mxCell>
        <mxCell id="NJ_7E44Y7URhuoBIOfff-5" value="" style="rounded=0;whiteSpace=wrap;html=1;fillColor=#bdcfaa;strokeColor=#000000;shadow=0;glass=0;fontColor=#ffffff;" vertex="1" parent="1">
          <mxGeometry x="130" y="480" width="80" height="30" as="geometry" />
        </mxCell>
        <mxCell id="NJ_7E44Y7URhuoBIOfff-6" value="" style="rounded=0;whiteSpace=wrap;html=1;fillColor=#DEDEDE;strokeColor=#000000;shadow=0;glass=0;fontColor=#333333;dashed=1;" vertex="1" parent="1">
          <mxGeometry x="210" y="480" width="100" height="30" as="geometry" />
        </mxCell>
        <mxCell id="NJ_7E44Y7URhuoBIOfff-7" value="Pod A" style="text;html=1;align=center;verticalAlign=middle;resizable=0;points=[];autosize=1;strokeColor=none;fillColor=none;" vertex="1" parent="1">
          <mxGeometry x="190" y="340" width="60" height="30" as="geometry" />
        </mxCell>
        <mxCell id="NJ_7E44Y7URhuoBIOfff-8" value="Pod B" style="text;html=1;align=center;verticalAlign=middle;resizable=0;points=[];autosize=1;strokeColor=none;fillColor=none;" vertex="1" parent="1">
          <mxGeometry x="190" y="450" width="60" height="30" as="geometry" />
        </mxCell>
        <mxCell id="NJ_7E44Y7URhuoBIOfff-9" value="" style="shape=crossbar;whiteSpace=wrap;html=1;rounded=1;fillColor=#e51400;fontColor=#ffffff;strokeColor=#B20000;strokeWidth=2;" vertex="1" parent="1">
          <mxGeometry x="130" y="410" width="130" height="10" as="geometry" />
        </mxCell>
        <mxCell id="NJ_7E44Y7URhuoBIOfff-10" value="limit" style="text;html=1;align=center;verticalAlign=middle;resizable=0;points=[];autosize=1;strokeColor=none;fillColor=none;" vertex="1" parent="1">
          <mxGeometry x="180" y="410" width="40" height="30" as="geometry" />
        </mxCell>
        <mxCell id="NJ_7E44Y7URhuoBIOfff-11" value="" style="shape=crossbar;whiteSpace=wrap;html=1;rounded=1;fillColor=#e51400;fontColor=#ffffff;strokeColor=#B20000;strokeWidth=2;" vertex="1" parent="1">
          <mxGeometry x="130" y="520" width="110" height="10" as="geometry" />
        </mxCell>
        <mxCell id="NJ_7E44Y7URhuoBIOfff-12" value="limit" style="text;html=1;align=center;verticalAlign=middle;resizable=0;points=[];autosize=1;strokeColor=none;fillColor=none;" vertex="1" parent="1">
          <mxGeometry x="165" y="520" width="40" height="30" as="geometry" />
        </mxCell>
        <mxCell id="NJ_7E44Y7URhuoBIOfff-14" value="" style="rounded=0;whiteSpace=wrap;html=1;" vertex="1" parent="1">
          <mxGeometry x="399" y="290" width="130" height="270" as="geometry" />
        </mxCell>
        <mxCell id="NJ_7E44Y7URhuoBIOfff-15" value="Memory Zram" style="text;html=1;align=center;verticalAlign=middle;resizable=0;points=[];autosize=1;strokeColor=none;fillColor=none;" vertex="1" parent="1">
          <mxGeometry x="414" y="300" width="100" height="30" as="geometry" />
        </mxCell>
        <mxCell id="NJ_7E44Y7URhuoBIOfff-16" value="" style="rounded=0;whiteSpace=wrap;html=1;fillColor=#bdcfaa;strokeColor=#000000;shadow=0;glass=0;fontColor=#ffffff;" vertex="1" parent="1">
          <mxGeometry x="430" y="370" width="40" height="30" as="geometry" />
        </mxCell>
        <mxCell id="NJ_7E44Y7URhuoBIOfff-18" value="" style="endArrow=classic;html=1;rounded=0;strokeColor=#B20000;strokeWidth=2;exitX=1;exitY=0.5;exitDx=0;exitDy=0;dashed=1;" edge="1" parent="1">
          <mxGeometry width="50" height="50" relative="1" as="geometry">
            <mxPoint x="346" y="385" as="sourcePoint" />
            <mxPoint x="426" y="385" as="targetPoint" />
          </mxGeometry>
        </mxCell>
        <mxCell id="NJ_7E44Y7URhuoBIOfff-26" value="Compress" style="text;html=1;align=center;verticalAlign=middle;resizable=0;points=[];autosize=1;strokeColor=none;fillColor=none;" vertex="1" parent="1">
          <mxGeometry x="340" y="360" width="80" height="30" as="geometry" />
        </mxCell>
        <mxCell id="NJ_7E44Y7URhuoBIOfff-27" value="" style="rounded=0;whiteSpace=wrap;html=1;fillColor=#bdcfaa;strokeColor=#000000;shadow=0;glass=0;fontColor=#ffffff;" vertex="1" parent="1">
          <mxGeometry x="430" y="480" width="20" height="30" as="geometry" />
        </mxCell>
        <mxCell id="NJ_7E44Y7URhuoBIOfff-28" value="" style="endArrow=classic;html=1;rounded=0;strokeColor=#B20000;strokeWidth=2;exitX=1;exitY=0.5;exitDx=0;exitDy=0;dashed=1;" edge="1" parent="1">
          <mxGeometry width="50" height="50" relative="1" as="geometry">
            <mxPoint x="346" y="494.5" as="sourcePoint" />
            <mxPoint x="426" y="494.5" as="targetPoint" />
          </mxGeometry>
        </mxCell>
        <mxCell id="NJ_7E44Y7URhuoBIOfff-32" value="Compress" style="text;html=1;align=center;verticalAlign=middle;resizable=0;points=[];autosize=1;strokeColor=none;fillColor=none;" vertex="1" parent="1">
          <mxGeometry x="340" y="470" width="80" height="30" as="geometry" />
        </mxCell>
        <mxCell id="NJ_7E44Y7URhuoBIOfff-33" value="" style="rounded=0;whiteSpace=wrap;html=1;" vertex="1" parent="1">
          <mxGeometry x="120" y="630" width="520" height="270" as="geometry" />
        </mxCell>
        <mxCell id="NJ_7E44Y7URhuoBIOfff-34" value="" style="rounded=0;whiteSpace=wrap;html=1;fillColor=#bdcfaa;strokeColor=#000000;shadow=0;glass=0;fontColor=#ffffff;" vertex="1" parent="1">
          <mxGeometry x="130" y="710" width="120" height="30" as="geometry" />
        </mxCell>
        <mxCell id="NJ_7E44Y7URhuoBIOfff-35" value="Memory Cgroup" style="text;html=1;align=center;verticalAlign=middle;resizable=0;points=[];autosize=1;strokeColor=none;fillColor=none;" vertex="1" parent="1">
          <mxGeometry x="170" y="630" width="110" height="30" as="geometry" />
        </mxCell>
        <mxCell id="NJ_7E44Y7URhuoBIOfff-36" value="" style="rounded=0;whiteSpace=wrap;html=1;fillColor=#DEDEDE;strokeColor=#000000;shadow=0;glass=0;fontColor=#333333;dashed=1;" vertex="1" parent="1">
          <mxGeometry x="250" y="710" width="90" height="30" as="geometry" />
        </mxCell>
        <mxCell id="NJ_7E44Y7URhuoBIOfff-37" value="" style="rounded=0;whiteSpace=wrap;html=1;fillColor=#bdcfaa;strokeColor=#000000;shadow=0;glass=0;fontColor=#ffffff;" vertex="1" parent="1">
          <mxGeometry x="130" y="820" width="80" height="30" as="geometry" />
        </mxCell>
        <mxCell id="NJ_7E44Y7URhuoBIOfff-38" value="" style="rounded=0;whiteSpace=wrap;html=1;fillColor=#DEDEDE;strokeColor=#000000;shadow=0;glass=0;fontColor=#333333;dashed=1;" vertex="1" parent="1">
          <mxGeometry x="210" y="820" width="100" height="30" as="geometry" />
        </mxCell>
        <mxCell id="NJ_7E44Y7URhuoBIOfff-39" value="Pod A" style="text;html=1;align=center;verticalAlign=middle;resizable=0;points=[];autosize=1;strokeColor=none;fillColor=none;" vertex="1" parent="1">
          <mxGeometry x="190" y="680" width="60" height="30" as="geometry" />
        </mxCell>
        <mxCell id="NJ_7E44Y7URhuoBIOfff-40" value="Pod B" style="text;html=1;align=center;verticalAlign=middle;resizable=0;points=[];autosize=1;strokeColor=none;fillColor=none;" vertex="1" parent="1">
          <mxGeometry x="190" y="790" width="60" height="30" as="geometry" />
        </mxCell>
        <mxCell id="NJ_7E44Y7URhuoBIOfff-41" value="" style="shape=crossbar;whiteSpace=wrap;html=1;rounded=1;fillColor=#e51400;fontColor=#ffffff;strokeColor=#B20000;strokeWidth=2;" vertex="1" parent="1">
          <mxGeometry x="130" y="750" width="150" height="10" as="geometry" />
        </mxCell>
        <mxCell id="NJ_7E44Y7URhuoBIOfff-42" value="limit" style="text;html=1;align=center;verticalAlign=middle;resizable=0;points=[];autosize=1;strokeColor=none;fillColor=none;" vertex="1" parent="1">
          <mxGeometry x="180" y="750" width="40" height="30" as="geometry" />
        </mxCell>
        <mxCell id="NJ_7E44Y7URhuoBIOfff-43" value="" style="shape=crossbar;whiteSpace=wrap;html=1;rounded=1;fillColor=#e51400;fontColor=#ffffff;strokeColor=#B20000;strokeWidth=2;" vertex="1" parent="1">
          <mxGeometry x="130" y="860" width="140" height="10" as="geometry" />
        </mxCell>
        <mxCell id="NJ_7E44Y7URhuoBIOfff-44" value="limit" style="text;html=1;align=center;verticalAlign=middle;resizable=0;points=[];autosize=1;strokeColor=none;fillColor=none;" vertex="1" parent="1">
          <mxGeometry x="165" y="860" width="40" height="30" as="geometry" />
        </mxCell>
        <mxCell id="NJ_7E44Y7URhuoBIOfff-48" value="" style="endArrow=classic;html=1;rounded=0;strokeColor=#B20000;strokeWidth=2;exitX=1;exitY=0.5;exitDx=0;exitDy=0;dashed=1;" edge="1" parent="1">
          <mxGeometry width="50" height="50" relative="1" as="geometry">
            <mxPoint x="346" y="725" as="sourcePoint" />
            <mxPoint x="426" y="725" as="targetPoint" />
          </mxGeometry>
        </mxCell>
        <mxCell id="NJ_7E44Y7URhuoBIOfff-49" value="Compress" style="text;html=1;align=center;verticalAlign=middle;resizable=0;points=[];autosize=1;strokeColor=none;fillColor=none;" vertex="1" parent="1">
          <mxGeometry x="340" y="700" width="80" height="30" as="geometry" />
        </mxCell>
        <mxCell id="NJ_7E44Y7URhuoBIOfff-51" value="" style="endArrow=classic;html=1;rounded=0;strokeColor=#B20000;strokeWidth=2;exitX=1;exitY=0.5;exitDx=0;exitDy=0;dashed=1;" edge="1" parent="1">
          <mxGeometry width="50" height="50" relative="1" as="geometry">
            <mxPoint x="346" y="834.5" as="sourcePoint" />
            <mxPoint x="426" y="834.5" as="targetPoint" />
          </mxGeometry>
        </mxCell>
        <mxCell id="NJ_7E44Y7URhuoBIOfff-52" value="Compress" style="text;html=1;align=center;verticalAlign=middle;resizable=0;points=[];autosize=1;strokeColor=none;fillColor=none;" vertex="1" parent="1">
          <mxGeometry x="340" y="810" width="80" height="30" as="geometry" />
        </mxCell>
        <mxCell id="NJ_7E44Y7URhuoBIOfff-53" value="" style="rounded=0;whiteSpace=wrap;html=1;fillColor=#a0522d;strokeColor=#6D1F00;shadow=1;glass=0;fontColor=#ffffff;" vertex="1" parent="1">
          <mxGeometry x="550" y="710" width="40" height="30" as="geometry" />
        </mxCell>
        <mxCell id="NJ_7E44Y7URhuoBIOfff-54" value="" style="rounded=0;whiteSpace=wrap;html=1;fillColor=#bdcfaa;strokeColor=#000000;shadow=0;glass=0;fontColor=#ffffff;" vertex="1" parent="1">
          <mxGeometry x="430" y="710" width="120" height="30" as="geometry" />
        </mxCell>
        <mxCell id="NJ_7E44Y7URhuoBIOfff-55" value="" style="shape=crossbar;whiteSpace=wrap;html=1;rounded=1;fillColor=#e51400;fontColor=#ffffff;strokeColor=#B20000;strokeWidth=2;" vertex="1" parent="1">
          <mxGeometry x="430" y="750" width="170" height="10" as="geometry" />
        </mxCell>
        <mxCell id="NJ_7E44Y7URhuoBIOfff-56" value="limit" style="text;html=1;align=center;verticalAlign=middle;resizable=0;points=[];autosize=1;strokeColor=none;fillColor=none;" vertex="1" parent="1">
          <mxGeometry x="485" y="750" width="40" height="30" as="geometry" />
        </mxCell>
        <mxCell id="NJ_7E44Y7URhuoBIOfff-57" value="Pod A" style="text;html=1;align=center;verticalAlign=middle;resizable=0;points=[];autosize=1;strokeColor=none;fillColor=none;" vertex="1" parent="1">
          <mxGeometry x="475" y="680" width="60" height="30" as="geometry" />
        </mxCell>
        <mxCell id="NJ_7E44Y7URhuoBIOfff-58" value="" style="rounded=0;whiteSpace=wrap;html=1;fillColor=#bdcfaa;strokeColor=#000000;shadow=0;glass=0;fontColor=#ffffff;" vertex="1" parent="1">
          <mxGeometry x="430" y="820" width="80" height="30" as="geometry" />
        </mxCell>
        <mxCell id="NJ_7E44Y7URhuoBIOfff-59" value="" style="rounded=0;whiteSpace=wrap;html=1;fillColor=#a0522d;strokeColor=#6D1F00;shadow=1;glass=0;fontColor=#ffffff;" vertex="1" parent="1">
          <mxGeometry x="510" y="820" width="20" height="30" as="geometry" />
        </mxCell>
        <mxCell id="NJ_7E44Y7URhuoBIOfff-62" value="limit" style="text;html=1;align=center;verticalAlign=middle;resizable=0;points=[];autosize=1;strokeColor=none;fillColor=none;" vertex="1" parent="1">
          <mxGeometry x="470" y="860" width="40" height="30" as="geometry" />
        </mxCell>
        <mxCell id="NJ_7E44Y7URhuoBIOfff-65" value="" style="shape=crossbar;whiteSpace=wrap;html=1;rounded=1;fillColor=#e51400;fontColor=#ffffff;strokeColor=#B20000;strokeWidth=2;" vertex="1" parent="1">
          <mxGeometry x="430" y="860" width="140" height="10" as="geometry" />
        </mxCell>
        <mxCell id="NJ_7E44Y7URhuoBIOfff-67" value="" style="rounded=0;whiteSpace=wrap;html=1;fillColor=#bdcfaa;strokeColor=#000000;shadow=0;glass=0;fontColor=#ffffff;" vertex="1" parent="1">
          <mxGeometry x="130" y="1060" width="100" height="30" as="geometry" />
        </mxCell>
        <mxCell id="NJ_7E44Y7URhuoBIOfff-68" value="Memory Cgroup" style="text;html=1;align=center;verticalAlign=middle;resizable=0;points=[];autosize=1;strokeColor=none;fillColor=none;" vertex="1" parent="1">
          <mxGeometry x="170" y="980" width="110" height="30" as="geometry" />
        </mxCell>
        <mxCell id="NJ_7E44Y7URhuoBIOfff-69" value="" style="rounded=0;whiteSpace=wrap;html=1;fillColor=#a0522d;strokeColor=#6D1F00;shadow=0;glass=0;fontColor=#ffffff;dashed=1;" vertex="1" parent="1">
          <mxGeometry x="230" y="1060" width="70" height="30" as="geometry" />
        </mxCell>
        <mxCell id="NJ_7E44Y7URhuoBIOfff-70" value="" style="rounded=0;whiteSpace=wrap;html=1;fillColor=#bdcfaa;strokeColor=#000000;shadow=0;glass=0;fontColor=#ffffff;" vertex="1" parent="1">
          <mxGeometry x="130" y="1170" width="80" height="30" as="geometry" />
        </mxCell>
        <mxCell id="NJ_7E44Y7URhuoBIOfff-71" value="" style="rounded=0;whiteSpace=wrap;html=1;fillColor=#a0522d;strokeColor=#6D1F00;shadow=0;glass=0;fontColor=#ffffff;dashed=1;" vertex="1" parent="1">
          <mxGeometry x="210" y="1170" width="100" height="30" as="geometry" />
        </mxCell>
        <mxCell id="NJ_7E44Y7URhuoBIOfff-72" value="Pod A" style="text;html=1;align=center;verticalAlign=middle;resizable=0;points=[];autosize=1;strokeColor=none;fillColor=none;" vertex="1" parent="1">
          <mxGeometry x="190" y="1030" width="60" height="30" as="geometry" />
        </mxCell>
        <mxCell id="NJ_7E44Y7URhuoBIOfff-73" value="Pod B" style="text;html=1;align=center;verticalAlign=middle;resizable=0;points=[];autosize=1;strokeColor=none;fillColor=none;" vertex="1" parent="1">
          <mxGeometry x="190" y="1140" width="60" height="30" as="geometry" />
        </mxCell>
        <mxCell id="NJ_7E44Y7URhuoBIOfff-74" value="" style="shape=crossbar;whiteSpace=wrap;html=1;rounded=1;fillColor=#e51400;fontColor=#ffffff;strokeColor=#B20000;strokeWidth=2;" vertex="1" parent="1">
          <mxGeometry x="130" y="1100" width="190" height="10" as="geometry" />
        </mxCell>
        <mxCell id="NJ_7E44Y7URhuoBIOfff-75" value="limit" style="text;html=1;align=center;verticalAlign=middle;resizable=0;points=[];autosize=1;strokeColor=none;fillColor=none;rotation=0;" vertex="1" parent="1">
          <mxGeometry x="205" y="1100" width="40" height="30" as="geometry" />
        </mxCell>
        <mxCell id="NJ_7E44Y7URhuoBIOfff-76" value="" style="shape=crossbar;whiteSpace=wrap;html=1;rounded=1;fillColor=#e51400;fontColor=#ffffff;strokeColor=#B20000;strokeWidth=2;" vertex="1" parent="1">
          <mxGeometry x="130" y="1210" width="180" height="10" as="geometry" />
        </mxCell>
        <mxCell id="NJ_7E44Y7URhuoBIOfff-77" value="limit" style="text;html=1;align=center;verticalAlign=middle;resizable=0;points=[];autosize=1;strokeColor=none;fillColor=none;" vertex="1" parent="1">
          <mxGeometry x="200" y="1210" width="40" height="30" as="geometry" />
        </mxCell>
        <mxCell id="NJ_7E44Y7URhuoBIOfff-78" value="" style="endArrow=classic;html=1;rounded=0;strokeColor=#B20000;strokeWidth=2;exitX=1;exitY=0.5;exitDx=0;exitDy=0;dashed=1;" edge="1" parent="1">
          <mxGeometry width="50" height="50" relative="1" as="geometry">
            <mxPoint x="330" y="1074.5" as="sourcePoint" />
            <mxPoint x="410" y="1074.5" as="targetPoint" />
          </mxGeometry>
        </mxCell>
        <mxCell id="NJ_7E44Y7URhuoBIOfff-79" value="Compress" style="text;html=1;align=center;verticalAlign=middle;resizable=0;points=[];autosize=1;strokeColor=none;fillColor=none;" vertex="1" parent="1">
          <mxGeometry x="324" y="1050" width="80" height="30" as="geometry" />
        </mxCell>
        <mxCell id="NJ_7E44Y7URhuoBIOfff-80" value="" style="endArrow=classic;html=1;rounded=0;strokeColor=#B20000;strokeWidth=2;exitX=1;exitY=0.5;exitDx=0;exitDy=0;dashed=1;" edge="1" parent="1">
          <mxGeometry width="50" height="50" relative="1" as="geometry">
            <mxPoint x="330" y="1184.5" as="sourcePoint" />
            <mxPoint x="410" y="1184.5" as="targetPoint" />
          </mxGeometry>
        </mxCell>
        <mxCell id="NJ_7E44Y7URhuoBIOfff-81" value="Compress" style="text;html=1;align=center;verticalAlign=middle;resizable=0;points=[];autosize=1;strokeColor=none;fillColor=none;" vertex="1" parent="1">
          <mxGeometry x="326" y="1160" width="80" height="30" as="geometry" />
        </mxCell>
        <mxCell id="NJ_7E44Y7URhuoBIOfff-82" value="" style="rounded=0;whiteSpace=wrap;html=1;fillColor=#a0522d;strokeColor=#6D1F00;shadow=1;glass=0;fontColor=#ffffff;" vertex="1" parent="1">
          <mxGeometry x="529" y="1060" width="21" height="30" as="geometry" />
        </mxCell>
        <mxCell id="NJ_7E44Y7URhuoBIOfff-86" value="Pod A" style="text;html=1;align=center;verticalAlign=middle;resizable=0;points=[];autosize=1;strokeColor=none;fillColor=none;" vertex="1" parent="1">
          <mxGeometry x="475" y="1030" width="60" height="30" as="geometry" />
        </mxCell>
        <mxCell id="NJ_7E44Y7URhuoBIOfff-87" value="" style="rounded=0;whiteSpace=wrap;html=1;fillColor=#bdcfaa;strokeColor=#000000;shadow=0;glass=0;fontColor=#ffffff;" vertex="1" parent="1">
          <mxGeometry x="430" y="1170" width="80" height="30" as="geometry" />
        </mxCell>
        <mxCell id="NJ_7E44Y7URhuoBIOfff-88" value="" style="rounded=0;whiteSpace=wrap;html=1;fillColor=#a0522d;strokeColor=#6D1F00;shadow=1;glass=0;fontColor=#ffffff;" vertex="1" parent="1">
          <mxGeometry x="510" y="1170" width="20" height="30" as="geometry" />
        </mxCell>
        <mxCell id="NJ_7E44Y7URhuoBIOfff-91" value="Memory Cgroup(compressed)" style="text;html=1;align=center;verticalAlign=middle;resizable=0;points=[];autosize=1;strokeColor=none;fillColor=none;" vertex="1" parent="1">
          <mxGeometry x="410" y="630" width="180" height="30" as="geometry" />
        </mxCell>
        <mxCell id="NJ_7E44Y7URhuoBIOfff-92" value="Memory Cgroup(compressed)" style="text;html=1;align=center;verticalAlign=middle;resizable=0;points=[];autosize=1;strokeColor=none;fillColor=none;" vertex="1" parent="1">
          <mxGeometry x="420" y="980" width="180" height="30" as="geometry" />
        </mxCell>
        <mxCell id="NJ_7E44Y7URhuoBIOfff-95" value="" style="rounded=0;whiteSpace=wrap;html=1;fillColor=#bdcfaa;strokeColor=#000000;shadow=0;glass=0;fontColor=#ffffff;" vertex="1" parent="1">
          <mxGeometry x="429" y="1060" width="100" height="30" as="geometry" />
        </mxCell>
        <mxCell id="NJ_7E44Y7URhuoBIOfff-98" value="" style="shape=crossbar;whiteSpace=wrap;html=1;rounded=1;fillColor=#e51400;fontColor=#ffffff;strokeColor=#B20000;strokeWidth=2;" vertex="1" parent="1">
          <mxGeometry x="430" y="1100" width="190" height="10" as="geometry" />
        </mxCell>
        <mxCell id="NJ_7E44Y7URhuoBIOfff-99" value="limit" style="text;html=1;align=center;verticalAlign=middle;resizable=0;points=[];autosize=1;strokeColor=none;fillColor=none;rotation=0;" vertex="1" parent="1">
          <mxGeometry x="505" y="1100" width="40" height="30" as="geometry" />
        </mxCell>
        <mxCell id="NJ_7E44Y7URhuoBIOfff-102" value="" style="shape=crossbar;whiteSpace=wrap;html=1;rounded=1;fillColor=#e51400;fontColor=#ffffff;strokeColor=#B20000;strokeWidth=2;" vertex="1" parent="1">
          <mxGeometry x="430" y="1210" width="180" height="10" as="geometry" />
        </mxCell>
        <mxCell id="NJ_7E44Y7URhuoBIOfff-103" value="limit" style="text;html=1;align=center;verticalAlign=middle;resizable=0;points=[];autosize=1;strokeColor=none;fillColor=none;rotation=0;" vertex="1" parent="1">
          <mxGeometry x="500" y="1210" width="40" height="30" as="geometry" />
        </mxCell>
      </root>
    </mxGraphModel>
  </diagram>
</mxfile>
